/* XPM */
static char *ea_redbrick[] = {
/* columns rows colors chars-per-pixel */
"64 64 122 2 ",
"   c #202020",
".  c #2C2C2C",
"X  c gray19",
"o  c #343434",
"O  c gray22",
"+  c #400000",
"@  c #4C0000",
"#  c #580000",
"$  c #640000",
"%  c #700000",
"&  c #7C0000",
"*  c #682626",
"=  c gray25",
"-  c #484848",
";  c #4C4C4C",
":  c gray33",
">  c gray36",
",  c #755858",
"<  c #606060",
"1  c #646464",
"2  c #6A6A6A",
"3  c gray44",
"4  c #767676",
"5  c #797979",
"6  c gray48",
"7  c #7E7E7E",
"8  c #880000",
"9  c #980000",
"0  c #A40000",
"q  c #B00000",
"w  c #BC0000",
"e  c #922626",
"r  c #A02626",
"t  c #AB2626",
"y  c #C80000",
"u  c #D40000",
"i  c #E00000",
"p  c #EC0000",
"a  c #B24242",
"s  c #AF5858",
"d  c #B85858",
"f  c #906B6B",
"g  c #976B6B",
"h  c #9E6B6B",
"j  c #917D7D",
"k  c #A56B6B",
"l  c #AD6B6B",
"z  c #B76B6B",
"x  c #BF6B6B",
"c  c #A27D7D",
"v  c #A87D7D",
"b  c #AE7D7D",
"n  c #B57D7D",
"m  c #C64242",
"M  c #DD5858",
"N  c #C76B6B",
"B  c #CF6B6B",
"V  c #E06B6B",
"C  c #808080",
"Z  c #979797",
"A  c gray62",
"S  c #BD8D8D",
"D  c #AA9C9C",
"F  c #B29C9C",
"G  c #B79C9C",
"H  c #BB9C9C",
"J  c #A2A2A2",
"K  c #A5A5A5",
"L  c #B9AAAA",
"P  c #B4B4B4",
"I  c gray72",
"U  c #C09C9C",
"Y  c #C59C9C",
"T  c #D29C9C",
"R  c #DD9C9C",
"E  c #E99C9C",
"W  c #D8AAAA",
"Q  c #C2B8B8",
"!  c #CAB8B8",
"~  c #CDB8B8",
"^  c #D9B8B8",
"/  c #ECAAAA",
"(  c #EEB8B8",
")  c #CFC5C5",
"_  c #C8C8C8",
"`  c #D4C5C5",
"'  c #D6C5C5",
"]  c #D7D1D1",
"[  c gray83",
"{  c #D5D5D5",
"}  c gray84",
"|  c #D9D1D1",
" . c #DBD1D1",
".. c #DDD1D1",
"X. c #DFD1D1",
"o. c #D8D8D8",
"O. c #DADADA",
"+. c #DDDDDD",
"@. c #E3C5C5",
"#. c #E1D1D1",
"$. c #E3D1D1",
"%. c #E6D1D1",
"&. c #E9D1D1",
"*. c #ECD1D1",
"=. c #EED1D1",
"-. c #E4DDDD",
";. c #E6DDDD",
":. c #EFDDDD",
">. c #F1D1D1",
",. c #F4D1D1",
"<. c gray88",
"1. c gray92",
"2. c #ECE9E9",
"3. c #ECECEC",
"4. c #F4E9E9",
"5. c #FAE9E9",
"6. c #F7F4F4",
"7. c #F6F6F6",
"8. c #F8F4F4",
"9. c #F9F4F4",
"0. c #FAF4F4",
"q. c white",
/* pixels */
"O O O O O O O O O O O O O O O O O O O O O O O O O O O O O O O O O O O O O O O O O O O O O O O O O O O O O O O O O O O O O O O O ",
": O : - - - - - : - - - - - - : - O - - - - - - - : : : : : : - - - - - - - - - : : : : : : : - - - - O O O - - : : - - - - - O ",
"O p p u u u u u u u u u 0 - - : p p u u u u u u u u u u u u u u u u u u 0 - O : p p p p i i i i i i u u u u u y y y y w w w 0 - ",
"- p y q q u 8 0 u 8 y 0 $ . - : p w 8 w 8 w 8 w & w 9 w 9 w & w & w y 0 % . - O u 0 y q y q q y % y & y q y 8 q 0 & y 9 y 0 & . ",
"- u 0 & 0 8 0 9 % 0 8 % $ . - : u w 8 8 0 8 % 0 0 % 9 0 0 % 9 0 % 0 9 % # . - : u 0 0 & $ 0 8 % 8 0 & 8 0 0 8 0 & 8 0 # 0 % $ . ",
"- u & 0 0 % 9 0 0 % 0 # + . - : u 8 w 0 8 0 % 0 8 0 % 0 % 8 & 0 % 9 & % # . - - u % 0 $ 8 0 $ 0 % 0 & 0 8 0 $ 0 9 & 0 & 0 % @ . ",
"- y 0 & 8 9 & 0 % 8 0 % + . - : w w 8 0 8 8 9 0 % 8 % 0 8 % 9 & 8 % 0 % + . O - w % 0 & 0 8 $ 0 % % 0 0 % 0 8 0 0 & 0 # 0 8 @ . ",
"- w & 0 0 % 0 9 % 9 % # + . - - w y 8 0 % 0 % 0 % 0 % 9 8 % & 0 % 9 & % # . O - w 9 0 $ 8 0 & 8 % 8 & 0 8 0 $ 0 & 8 0 & 0 % + . ",
"- w 0 % 8 # % & # % 8 % + . O : 9 9 % % @ 8 % % 8 % @ % 8 % 8 % @ 8 % % + . O - w % % # % % @ 8 @ % # 8 @ % @ 8 $ @ % 8 % 8 + . ",
"- & $ $ $ + + + + + + + + . O - & $ $ # # # # # # # # # + + + + + + + + + . O - 8 $ $ $ $ $ $ $ $ $ $ # # # # # # # # # + + + . ",
"- - . . . . . . . .       . O : - . . . . .           . .         . . . . . - : O . . . . . . . . . . .           . . . . . . . ",
": O O O O - - - - O O O O O - O - - - - - - - O O O : - - - O O - - - - - - : O - : : : : > 1 1 > : : - - = O = : O : - - - : O ",
"p u u u w w w w w w w w w w w 0 - : - p p u u u u u u y y y y y y y w w w w w w w w w w w w w w w w w w 0 - = : p p u u u u u u ",
"q 8 8 q 9 & q & 9 8 q $ q 8 0 + O - : p % q y & w $ 8 w 8 8 y 9 0 8 & 8 0 8 0 8 0 & y $ y 8 9 w y 9 y 0 + O - O p y & q 8 q 8 q ",
"8 0 8 0 & 8 8 $ 0 8 $ 8 0 0 % + . - - u q % 0 & 0 0 8 0 $ 0 % $ 8 0 & 0 & 0 $ 0 0 8 $ 0 8 0 % 8 0 % 0 % + O - : y q & 0 8 & 0 9 ",
"% 0 0 8 9 $ 0 & 8 8 9 $ 0 8 X.q.q.q.q.q.q.q.q.q.q.q.q.q.q.q.0 8 $ 0 8 & $ U q.q.q.q.q.q.q.q.d % 0 0 % % + . = - y & 0 0 0 & 0 & ",
"0 8 8 0 8 & & 8 & 0 9 $ 0 $ X.q.q.q.q.q.q.q.q.q.q.q.q.q.q.q.0 $ 8 0 & 8 & W q.q.q.q.q.q.q.q.n % 0 % 0 % + . O - y q & 0 & 0 9 & ",
"% 0 $ 0 % 8 & 9 $ 0 $ 8 0 0 X.q.q.q.q.q.q.q.q.q.q.q.q.q.q.q.% $ 0 8 & # & &.q.q.q.q.q.q.q.q.H 8 0 % 0 % +   O - q & 0 0 # 0 & 8 ",
"% q $ % @ & % 9 % 9 % # 9 % X.q.q.q.q.q.q.q.q.q.q.q.q.q.q.q.8 # % 9 % 9 $ 8.q.q.q.q.q.q.q.q.) % 9 % 8 % +   = : q 0 & % # % 9 % ",
"+ @ @ @ @ @ @ @ @ @ @ @ @ + ] q.q.q.q.q.q.q.q.q.q.q.q.q.q.q.$ $ $ # # # * q.q.q.q.q.q.q.q.q.-.# # # # + +   - O 0 $ + $ + + $ + ",
". . .   . . .       . . .   [ q.q.q.q.q.C 7 6 6 6 6 6 6 7 7 O O o . . . 4 q.q.q.q.q.q.q.q.q.q.  . . . . . O - : - . . . . . . . ",
": : - O O - : O : O - - O O } q.q.q.q.q.- - = O = O = O = - - - : O : - A q.q.q.q.3.q.q.q.q.q.< = - - - : - : O : = O = : - - - ",
": p p u u u u u u u w w w w =.q.q.q.q.q.w w w w w w w 0 - : : p p u u u E q.q.q.q.( q.q.q.q.q.B w w w w w w w w w w w w w w 0 - ",
": p 8 q w & w & w & q 8 q 8 *.q.q.q.q.q.8 w q $ q y % + O - : p w % u 0 *.q.q.q.q.N q.q.q.q.q.Y % 8 0 & 8 0 9 8 0 & 8 0 # 0 + . ",
"O p q 8 0 9 0 & % 8 0 0 8 9 $.q.q.q.q.q.0 8 $ 8 0 % q + . - > u w 9 0 $ 4.q.q.q.q.e 6.q.q.q.q.! 0 % 0 & 0 8 0 $ 0 9 & 0 & % + . ",
"- w $ 0 0 % 8 # 0 $ 0 % 0 8 %.q.q.q.q.q.8 0 8 $ & 0 % + . : 1 u w & 0 & q.q.q.q.q.0 #.q.q.q.q...0 % % 0 9 % 9 8 0 0 & 0 # % + . ",
"- w q 8 0 @ 0 # % 8 0 8 % & &.q.q.q.q.q.$ 0 8 $ 0 % # + . : > u % 0 % s q.q.q.q.X.0 ! q.q.q.q.8.8 % 8 & 0 8 0 $ 0 & 8 0 & % + . ",
": w % $ 0 @ 8 & 0 $ 0 # 0 $ &.q.q.q.q.q.$ 0 $ 8 & & q + . - : u y % 0 v q.q.q.q.' 0 G q.q.q.q.q.t @ 0 # 0 @ 0 0 8 $ @ % 8 % + . ",
"- y 0 $ % % % # % @ % % 8 $ $.q.q.q.q.q.$ % 9 % 9 % % + . O : y 0 % 9 H q.q.q.q.H % c q.q.q.q.q.f % 0 @ % 8 @ 0 # 0 @ 0 % % + . ",
"- 0 9 $ $ $ $ $ $ $ $ $ $ $ ..q.q.q.q.q.@ @ @ @ @ @ + + . O : 0 $ $ $ ` q.q.q.q.c $ g q.q.q.q.q.F # # # # # # # # # + # & # + . ",
"- - O . . . . . . . . . . . { q.q.q.q.q.C C C 6 6 6 6 6 . - - - . . . <.q.q.q.q.4     q.q.q.q.q.P .       . . . . . . . . . . . ",
": : : : : - - O - O O O - : +.q.q.q.q.q.q.q.q.q.q.q.q.q.O = : - - - : q.q.q.q.q.= O = 1.q.q.q.q.o.- = O = - - - : O : - - - : O ",
"w w w w w w w w w w 0 - O : ,.q.q.q.q.q.q.q.q.q.q.q.q.q.w w w w w w m q.q.q.q.0.- : : >.q.q.q.q.5.u u u u u w w w w w w w w w w ",
"0 q 0 q 9 y q q y 0 + O - O ,.q.q.q.q.q.q.q.q.q.q.q.q.q.8 $ 0 0 $ 0 x q.q.q.q.] O - : / q.q.q.q.q.0 $ 0 & 8 & 0 % 0 8 0 & 0 % 0 ",
"0 & 8 0 9 0 & 0 8 % + . - : ,.q.q.q.q.q.q.q.q.q.q.q.q.q.8 8 0 8 $ 0 H q.q.q.q.Q O : : E q.q.q.q.q.l $ 0 8 0 & 8 8 9 % 9 & 9 8 % ",
"8 & 0 9 & 0 & 9 0 % + . - O ,.q.q.q.q.q.q.q.q.q.q.q.q.q.0 @ 8 8 0 8 ~ q.q.q.q.D O : 1 V q.q.q.q.q.S 0 8 0 0 & 0 % 9 8 0 9 & 0 % ",
"0 8 & 0 9 0 9 & 8 % + O - : ,.q.q.q.q.q.& # 9 8 8 8 % 8 0 $ 0 8 $ 8 %.q.q.q.q.j O : 1 M q.q.q.q.q.G 0 0 & & 0 & 0 8 9 9 8 & % 8 ",
"0 8 & 0 & 0 & 9 0 % + O - - ,.q.q.q.q.q.0 % 8 8 0 8 0 % 8 @ $ 9 $ 0 9.q.q.q.q., O - : y q.q.q.q.q.@.8 8 & 0 & 0 % 9 8 0 & 8 0 % ",
"% % 8 9 % % 9 % % % + O - - %.q.q.q.q.q.& % 0 % 0 $ 0 # 8 $ 0 8 $ r q.q.q.q.q.+ . - : y :.q.q.q.q.:.8 0 8 0 & 0 % 9 % 9 & 0 0 % ",
"+ + @ @ @ @ @ @ @ + + . - - &.q.q.q.q.q.$ $ $ $ # # # # # # # # # f q.q.q.q.2.+ . - - 0 ..q.q.q.q.q.$ $ $ $ $ $ $ $ $ # # # # + ",
". . . . . . . . . . . . - : o.q.q.q.q.q.. . O O O .           . . K q.q.q.q.q.q.q.q.q.q.q.q.q.q.q.q.5 O . .       . . . . . . . ",
": - : O - O O - - O O O O - o.q.q.q.q.q.- - - : : - - O O O : - - I q.q.q.q.q.q.q.q.q.q.q.q.q.q.q.q.J : ; - - O : - : - : O : O ",
"O p u u u u u u u w w w w w =.q.q.q.q.q.w w w w w w w w w w w 0 O O.q.q.q.q.q.q.q.q.q.q.q.q.q.q.q.q.R w w w w w w w w w w w 0 - ",
": u 0 8 8 0 $ 0 0 & 9 0 & 0 X.q.q.q.q.q.0 8 0 $ 0 $ 0 0 & % 0 + O 3.q.q.q.q.q.q.q.q.q.q.q.q.q.q.q.q.^ 8 % 0 8 & 0 & 9 % 8 0 + . ",
"- u 0 $ 0 8 $ 0 8 9 & 0 $ 8  .q.q.q.q.q.8 9 8 $ 0 & 0 & 0 % 9 + . q.q.q.q.q.q.q.q.q.q.q.q.q.q.q.q.q...0 % 8 % 0 8 & 9 0 $ 8 + . ",
"- u 8 $ 0 $ 8 % $ 0 $ 0 8 & $.q.q.q.q.q.# & 0 @ 9 # 8 $ 8 8 % + 6 q.q.q.q.q.$ $ 8 0 & # 0 #.q.q.q.q.q.% % 0 % 0 & 0 % 8 $ 0 + . ",
"O u 0 8 0 8 $ 0 8 & 9 0 & 0  .q.q.q.q.q.l x f z x k x x x h & + Z q.q.q.q.;.0 8 $ 0 # 0 % ^ q.q.q.q.q.a & 8 9 8 9 & % 0 8 0 + . ",
": u 0 $ 8 0 $ 0 $ 0 $ 0 $ 0 X.q.q.q.q.q.q.q.q.q.q.q.q.q.q.q.0 + J q.q.q.q...$ 0 $ & # 0 # T q.q.q.q.q.l % 0 % & 0 & 9 8 $ % + . ",
"O y 0 $ 0 $ 8 % 8 9 & 0 8 8 $.q.q.q.q.q.q.q.q.q.q.q.q.q.q.q.0 + _ q.q.q.q.T $ 8 $ 0 # & 0 b q.q.q.q.q.T % 0 % 0 & 9 % 0 $ 0 + . ",
": 0 $ $ $ $ $ $ $ $ $ @ @ @ | q.q.q.q.q.q.q.q.q.q.q.q.q.q.q.@ + <.q.q.q.q.G $ $ $ $ $ $ $ f q.q.q.q.q.L @ @ @ @ @ @ @ @ @ + + . ",
"O - . . . . . . . . . . O O } q.q.q.q.q.q.q.q.q.q.q.q.q.q.q.  . q.q.q.q.q.6 . . . .       . q.q.q.q.q.{ . . .       . . . . . . ",
": O : O : - : - - - - : 1 1 O.q.q.q.q.q.q.q.q.q.q.q.q.q.q.q.- 3 q.q.q.q.q.2 - - - - - - - ; 7.q.q.q.q.7.- - O X     X O - - : - ",
"u u u u u w w w w w w w w w w w w 0 - : - p p u u u u u u u u w w w w w w w w w w w w w w w 0 - O : p u u u u u w w w w w w w w ",
"& 0 # 0 0 $ 9 $ 0 & y & 0 $ 0 & 0 + . - - u 0 0 0 0 $ 0 @ 0 & 0 $ 0 $ 0 9 0 $ 0 $ 0 # 0 % $ + O - : u 0 $ 8 0 # 0 % 0 % 0 $ 0 % ",
"0 & & 0 & 0 $ 9 & $ 0 # & $ 8 $ 8 + . - - u & 0 % 0 $ % @ & 9 & 0 8 $ 8 9 $ & 8 % 8 # 0 $ 0 + o - : u $ 0 # 0 % 0 % 8 0 % 0 8 @ ",
"0 & # & 0 $ 9 $ & 0 & # 0 8 $ 9 & + . - = u & & % 0 $ & & 0 # 0 @ 0 0 $ 0 $ 0 $ 8 # 8 8 $ % + . - : u $ 0 % % 0 0 8 % 8 % $ % 8 ",
"& 9 # 9 $ $ 0 $ 0 & 0 # & % $ 0 $ + . - = u 0 @ % 0 $ 0 @ 0 & 9 $ 0 $ 8 & $ 0 $ 0 8 # % 9 $ + . - : u 0 $ # 0 8 % % 0 % 0 $ % 0 ",
"$ 0 & 0 $ 0 $ 8 0 $ 0 & # 8 0 & 8 + . - = u @ 0 0 $ 0 & % 8 # & @ 0 $ 0 $ & & $ 8 % # 8 % $ + . - - u $ 0 8 0 % 0 8 % % # 0 % 0 ",
"$ 0 & & $ 9 9 $ 9 $ & # 0 $ 0 $ 9 + . - - u @ 0 % 0 $ & & 8 @ 9 $ 8 @ 0 & $ 0 8 $ 0 # 0 # 8 + . O - u $ 0 # % # 0 % 0 % # $ 0 @ ",
"& 9 # 0 $ $ 8 $ & & 0 # 0 $ % 8 & + . - : y 0 @ % 0 $ 0 @ 8 $ 0 $ 0 % $ 0 $ & 0 $ 8 % 8 $ 8 + . O - y $ $ # 0 # 0 % 0 % 0 $ 0 % ",
"@ @ @ @ @ @ @ @ @ @ @ @ @ @ @ @ + + . - - 0 + + + + + @ @ @ @ @ @ @ @ @ @ @ @ @ @ @ @ @ @ + +   - : 0 + + @ @ @ @ @ @ @ @ @ @ @ ",
". . . . . . . . . . . . . . . . . . . - : - O o o . . . . . . . . . . . . . .           .       O - - . . . . . .           . . ",
"O : O : O O O - - - - - : : O - - - - : : : : : - - - : - - - : - - O - - - = O O = O O = - = O = : - - O : - - - - = O = - - - ",
": : : : : : : : : : : : : : : : : : : : : : : : : : : : : : : : : : : : : : : : : : : : : : : : : : : : : : : : : : : : : : : : "
};
