/* XPM */
static char *no_redbrick[] = {
/* columns rows colors chars-per-pixel */
"64 64 132 2 ",
"   c #202020",
".  c #2C2C2C",
"X  c gray19",
"o  c #343434",
"O  c gray22",
"+  c #400000",
"@  c #4C0000",
"#  c #580000",
"$  c #640000",
"%  c #700000",
"&  c #7C0000",
"*  c #542626",
"=  c #7C2626",
"-  c gray25",
";  c #444444",
":  c #484848",
">  c #4C4C4C",
",  c #515151",
"<  c gray33",
"1  c #5A5A5A",
"2  c gray36",
"3  c #764242",
"4  c #646464",
"5  c #6A6A6A",
"6  c gray45",
"7  c #767676",
"8  c gray48",
"9  c #880000",
"0  c #980000",
"q  c #A40000",
"w  c #B00000",
"e  c #BC0000",
"r  c #AB2626",
"t  c #C80000",
"y  c #D40000",
"u  c #E00000",
"i  c #EC0000",
"p  c #884242",
"a  c #9B4242",
"s  c #8B5858",
"d  c #935858",
"f  c #A84242",
"g  c #836B6B",
"h  c #896B6B",
"j  c #906B6B",
"k  c #976B6B",
"l  c #9E6B6B",
"z  c #A56B6B",
"x  c #AD6B6B",
"c  c #B76B6B",
"v  c #BF6B6B",
"b  c #DA4242",
"n  c #CA5858",
"m  c #CF6B6B",
"M  c #D76B6B",
"N  c #C57D7D",
"B  c #E06B6B",
"V  c #F16B6B",
"C  c #808080",
"Z  c #838383",
"A  c gray53",
"S  c #898989",
"D  c #8E8E8E",
"F  c gray58",
"G  c #979797",
"H  c #A38D8D",
"J  c #A78D8D",
"K  c #AC8D8D",
"L  c #B28D8D",
"P  c #AE9C9C",
"I  c #BB9C9C",
"U  c #A5A5A5",
"Y  c gray66",
"T  c gray68",
"R  c #B9AAAA",
"E  c #B2B2B2",
"W  c gray70",
"Q  c gray72",
"!  c #BCBCBC",
"~  c gray75",
"^  c #C59C9C",
"/  c #D29C9C",
"(  c #D79C9C",
")  c #E99C9C",
"_  c #C1AAAA",
"`  c #C4AAAA",
"'  c #C9AAAA",
"]  c #CDAAAA",
"[  c #D8AAAA",
"{  c #CDB8B8",
"}  c #DDB8B8",
"|  c #CBCBCB",
" . c #CECECE",
".. c #D4C5C5",
"X. c #D6C5C5",
"o. c gray83",
"O. c #D5D5D5",
"+. c gray84",
"@. c #D7D7D7",
"#. c #D9D1D1",
"$. c #DBD1D1",
"%. c #DDD1D1",
"&. c #DFD1D1",
"*. c #D8D8D8",
"=. c gray85",
"-. c #DADADA",
";. c #F1C5C5",
":. c #E3D1D1",
">. c #E6D1D1",
",. c #E9D1D1",
"<. c #EED1D1",
"1. c #E4DDDD",
"2. c #E6DDDD",
"3. c #E7DDDD",
"4. c #EFDDDD",
"5. c #F4D1D1",
"6. c gray92",
"7. c #EEE9E9",
"8. c #ECECEC",
"9. c #F0E9E9",
"0. c #F1E9E9",
"q. c #F4E9E9",
"w. c #F5E9E9",
"e. c #F7E9E9",
"r. c #FAE9E9",
"t. c gray96",
"y. c #F6F4F4",
"u. c #F7F4F4",
"i. c #F8F4F4",
"p. c #F9F4F4",
"a. c #FAF4F4",
"s. c white",
/* pixels */
"O O O O O O O O O O O O O O O O O O O O O O O O O O O O O O O O O O O O O O O O O O O O O O O O O O O O O O O O O O O O O O O O ",
"< O < : : : : : < : : : : : : < : O : : : : : : : < < < < < < : : : : : : : : : < < < < < < < : : : : O O O : : < < : : : : : O ",
"O i i y y y y y y y y y q : : < i i y y y y y y y y y y y y y y y y y y q : O < i i i i u u u u u u y y y y y t t t t e e e q : ",
": i t w w y 9 q y 9 t q $ . : < i e 9 e 9 e 9 e & e 0 e 0 e & e & e t q % . : O y q t w t w w t % t & t w t 9 w q & t 0 t q & . ",
": y q & q 9 q 0 % q 9 % $ . : < y e 9 9 q 9 % q q % 0 q q % 0 q % q 0 % # . : < y q q & $ q 9 % 9 q & 9 q q 9 q & 9 q # q % $ . ",
": y & q q % 0 q q % q # + . : < y 9 e q 9 q % q 9 q % q % 9 & q % 0 & % # . : : y % q $ 9 q $ q % q & q 9 q $ q 0 & q & q % @ . ",
": t q & 9 0 & q % 9 q % + . : < e e 9 q 9 9 0 q % 9 % q 9 % 0 & 9 % q % + . O : e % q & q 9 $ q % % q q % q 9 q q & q # q 9 @ . ",
": e & q q % q 0 % 0 % # + . : : e t 9 q % q % q % q % 0 9 % & q % 0 & % # . O : e 0 q $ 9 q & 9 % 9 & q 9 q $ q & 9 q & q % + . ",
": e q % 9 # % & # % 9 % + . O < 0 0 % % @ 9 % % 9 % @ % 9 % 9 % @ 9 % % + . O : e % % # % % @ 9 @ % # 9 @ % @ 9 $ @ % 9 % 9 + . ",
": & $ $ $ + + + + + + + + . O : & $ $ # # # # # # # # # + + + + + + + + + . O : 9 $ $ $ $ $ $ $ $ $ $ # # # # # # # # # + + + . ",
": : . . . . . . . .       . O < : . . . . .           . .         . . . . . : < O . . . . . . . . . . .           . . . . . . . ",
"< O O O O : : : : O O O O O : O : : : : : : : O O O < : : : O O : : : : : : < O : < < < < 2 4 4 2 < < : : - O - < O < : : : < O ",
"i y y y e e e e e e e e e e e q : < : i i y y y y y y t t t t t t t e e e e e e e e e e e e e e e e e e q : - < i i y y y y y y ",
"w 9 9 w 0 & w & 0 9 w $ w 9 q + O : < i % w t & e $ 9 e 9 9 t 0 q 9 & 9 q 9 q 9 q & t $ t 9 0 e t 0 t q + O : O i t & w 9 w 9 w ",
"9 q 9 q & 9 9 $ q 9 $ 9 q q % + . : : y w % q & q q 9 q $ q % $ 9 q & q & q $ q q 9 $ q 9 q % 9 q % q % + O : < t w & q 9 & q 0 ",
"% q q 9 0 $ q & 9 9 0 $ q s.s.s.s.s.s.s.L q 9 0 9 9 s.s.s.s.s.x $ q 9 & $ & 9 a [ $.s.s.s.&.[ p q q % % + . - : t & q q q & q & ",
"q 9 9 q 9 & & 9 & q 0 $ q s.s.s.s.s.s.s.{ q q & q $ s.s.s.s.s.k 9 q & 9 & r _ s.s.s.s.s.s.s.s.s.[ = q % + . O : t w & q & q 0 & ",
"% q $ q % 9 & 0 $ q $ 9 q s.s.s.s.s.s.s.w.# q & q 9 s.s.s.s.s.k q 9 & # & 4.s.s.s.s.s.s.s.s.s.s.s.3.q % +   O : w & q q # q & 9 ",
"% w $ % @ & % 0 % 0 % # 0 s.s.s.s.s.s.s.s.p 9 # % 0 s.s.s.s.s.j % 0 % 0 _ s.s.s.s.s.s.s.s.s.s.s.s.s.] % +   - < w q & % # % 0 % ",
"+ @ @ @ @ @ @ @ @ @ @ @ @ s.s.s.s.s.s.s.s.K $ $ $ $ s.s.s.s.s.k $ # # 3 s.s.s.s.s.s.s.s.s.s.s.s.s.s.s.* +   : O q $ + $ + + $ + ",
". . .   . . .       . . . s.s.s.s.s.s.s.s.~ . . . . s.s.s.s.s.C o . . U s.s.s.s.s.t.G 8 F t.s.s.s.s.s.U . O : < : . . . . . . . ",
"< < : O O : < O < O : : O s.s.s.s.s.s.s.s.8.- O - O s.s.s.s.s.A < O <  .s.s.s.s.s.Z : : < Z s.s.s.s.s. .< : < O < - O - < : : : ",
"< i i y y y y y y y e e e s.s.s.s.s.s.s.s.s.n e e e s.s.s.s.s.V i y y r.s.s.s.s.r.y y e e e e.s.s.s.s.e.e e e e e e e e e e q : ",
"< i 9 w e & e & e & w 9 w s.s.s.s.s.s.s.s.s.( $ w t s.s.s.s.s.V e % y s.s.s.s.s.:.w 0 w & $ ,.s.s.s.s.s.9 q 0 9 q & 9 q # q + . ",
"O i w 9 q 0 q & % 9 q q 9 s.s.s.s.s.s.s.s.s...9 q % s.s.s.s.s.B e 0 q s.s.s.s.s.>.9 $ q $ 9 ,.s.s.s.s.s.q 9 q $ q 0 & q & % + . ",
": e $ q q % 9 # q $ q % q s.s.s.s.s.4.s.s.s.i.$ & q s.s.s.s.s.B e & q s.s.s.s.s.>.q & q & q :.s.s.s.s.s.0 % 0 9 q q & q # % + . ",
": e w 9 q @ q # % 9 q 9 % s.s.s.s.s.' s.s.s.s.s q % s.s.s.s.s.B % q % s.s.s.s.s.&.q $ 9 $ 9 ,.s.s.s.s.s.q 9 q $ q & 9 q & % + . ",
"< e % $ q @ 9 & q $ q # q s.s.s.s.s.N s.s.s.s.^ & & s.s.s.s.s.B t % q s.s.s.s.s.&.q $ q # % &.s.s.s.s.s.q @ q q 9 $ @ % 9 % + . ",
": t q $ % % % # % @ % % 9 s.s.s.s.s.l 3.s.s.s.X.0 % s.s.s.s.s.M q % 0 s.s.s.s.s.&.% $ 9 % 9 #.s.s.s.s.s.% 9 @ q # q @ q % % + . ",
": q 0 $ $ $ $ $ $ $ $ $ $ s.s.s.s.s.h R s.s.s.y.@ @ s.s.s.s.s.v $ $ $ s.s.s.s.s.%.$ $ $ $ $ $.s.s.s.s.s.# # # # # # + # & # + . ",
": : O . . . . . . . . . . s.s.s.s.s.8 S s.s.s.s.8 . s.s.s.s.s.A . . . s.s.s.s.s.o.        . +.s.s.s.s.s.  . . . . . . . . . . . ",
"< < < < < : : O : O O O : s.s.s.s.s.D 1 s.s.s.s.Y O s.s.s.s.s.A : : < s.s.s.s.s.@.O - O - : -.s.s.s.s.s.- : : : < O < : : : < O ",
"e e e e e e e e e e q : O s.s.s.s.s.B y 5.s.s.s.<.e s.s.s.s.s.m e e e s.s.s.s.s.*.< < t i y 5.s.s.s.s.s.y y e e e e e e e e e e ",
"q w q w 0 t w w t q + O : s.s.s.s.s.l q / s.s.s.s.q s.s.s.s.s.v $ q q s.s.s.s.s.+.: < y q & ,.s.s.s.s.s.& 9 & q % q 9 q & q % q ",
"q & 9 q 0 q & q 9 % + . : s.s.s.s.s.x q z s.s.s.s.x s.s.s.s.s.x $ q % s.s.s.s.s.+.< < y q # ,.s.s.s.s.s.9 q & 9 9 0 % 0 & 0 9 % ",
"9 & q 0 & q & 0 q % + . : s.s.s.s.s.z 0 q s.s.s.s.^ s.s.s.s.s.x q 9 % s.s.s.s.s.+.< 4 y q & ,.s.s.s.s.s.q q & q % 0 9 q 0 & q % ",
"q 9 & q 0 q 0 & 9 % + O : s.s.s.s.s.z q & $.s.s.s.:.s.s.s.s.s.x $ 9 0 s.s.s.s.s.+.< 4 y & q ,.s.s.s.s.s.& & q & q 9 0 0 9 & % 9 ",
"q 9 & q & q & 0 q % + O : s.s.s.s.s.j 0 q I s.s.s.s.s.s.s.s.s.c $ q 0 s.s.s.s.s.+.: < t q & ,.s.s.s.s.s.& q & q % 0 9 q & 9 q % ",
"% % 9 0 % % 0 % % % + O : s.s.s.s.s.j q & d s.s.s.s.s.s.s.s.s.x $ 0 % s.s.s.s.s.O.: < t q # ,.s.s.s.s.s.9 q & q % 0 % 0 & q q % ",
"+ + @ @ @ @ @ @ @ + + . : s.s.s.s.s.k $ $ $ u.s.s.s.s.s.s.s.s.j # # # s.s.s.s.s.O.: : q $ $ %.s.s.s.s.s.$ $ $ $ $ $ $ # # # # + ",
". . . . . . . . . . . . : s.s.s.s.s.7   . . | s.s.s.s.s.s.s.s.8 . . . s.s.s.s.s.+.: : : . . O.s.s.s.s.s.. .       . . . . . . . ",
"< : < O : O O : : O O O O s.s.s.s.s.A : : : T s.s.s.s.s.s.s.s.A : : < s.s.s.s.s.*.: < : < O -.s.s.s.s.s.> : : O < : < : < O < O ",
"O i y y y y y y y e e e e s.s.s.s.s.m e e e n s.s.s.s.s.s.s.s.v O < O s.s.s.s.s.5.y y y y e <.s.s.s.s.s.e e e e e e e e e e q : ",
"< y q 9 9 q $ q q & 0 q & s.s.s.s.s.v & q 9 q u.s.s.s.s.s.s.s.g O : < s.s.s.s.s.%.q # q % q $.s.s.s.s.s.% q 9 & q & 0 % 9 q + . ",
": y q $ q 9 $ q 9 0 & q $ s.s.s.s.s.v # 9 0 9 ..s.s.s.s.s.s.s.g . : : r.s.s.s.s.7.& # 9 # 0 9.s.s.s.s.q.% 9 % q 9 & 0 q $ 9 + . ",
": y 9 $ q $ 9 % $ q $ q 9 s.s.s.s.s.x 9 # & q P s.s.s.s.s.s.s.g . O : ;.s.s.s.s.s.v & # q z s.s.s.s.s.X.% q % q & q % 9 $ q + . ",
"O y q 9 q 9 $ q 9 & 0 q & s.s.s.s.s.v # 9 q # f s.s.s.s.s.s.s.g . O : ) s.s.s.s.s.a.J v L p.s.s.s.s.s./ & 9 0 9 0 & % q 9 q + . ",
"< y q $ 9 q $ q $ q $ q $ s.s.s.s.s.v # 9 & q & 0.s.s.s.s.s.s.g   O < b s.s.s.s.s.s.s.s.s.s.s.s.s.s.s.a % q % & q & 0 9 $ % + . ",
"O t q $ q $ 9 % 9 0 & q 9 s.s.s.s.s.x & # $ q @ } s.s.s.s.s.s.g   O < t ` s.s.s.s.s.s.s.s.s.s.s.s.s._ q % q % q & 0 % q $ q + . ",
"< q $ $ $ $ $ $ $ $ $ @ @ s.s.s.s.s.h @ @ @ @ @ H s.s.s.s.s.s.g . : < q $ 2.s.s.s.s.s.s.s.s.s.s.s.1.@ @ @ @ @ @ @ @ @ @ @ + + . ",
"O : . . . . . . . . . . O s.s.s.s.s.7   . . .   , s.s.s.s.s.s.8 . : O : . ; E s.s.s.s.s.s.s.s.s.W ;   . . . .       . . . . . . ",
"< O < O < : < : : : : < 4 s.s.s.s.s.D : < : - O O 6.s.s.s.s.s.C : : < O < : : 5 Q *.s.s.s.=.! 6 < > : : : : O X     X O : : < : ",
"y y y y y e e e e e e e e e e e e q : < : i i y y y y y y y y e e e e e e e e e e e e e e e q : O < i y y y y y e e e e e e e e ",
"& q # q q $ 0 $ q & t & q $ q & q + . : : y q q q q $ q @ q & q $ q $ q 0 q $ q $ q # q % $ + O : < y q $ 9 q # q % q % q $ q % ",
"q & & q & q $ 0 & $ q # & $ 9 $ 9 + . : : y & q % q $ % @ & 0 & q 9 $ 9 0 $ & 9 % 9 # q $ q + o : < y $ q # q % q % 9 q % q 9 @ ",
"q & # & q $ 0 $ & q & # q 9 $ 0 & + . : - y & & % q $ & & q # q @ q q $ q $ q $ 9 # 9 9 $ % + . : < y $ q % % q q 9 % 9 % $ % 9 ",
"& 0 # 0 $ $ q $ q & q # & % $ q $ + . : - y q @ % q $ q @ q & 0 $ q $ 9 & $ q $ q 9 # % 0 $ + . : < y q $ # q 9 % % q % q $ % q ",
"$ q & q $ q $ 9 q $ q & # 9 q & 9 + . : - y @ q q $ q & % 9 # & @ q $ q $ & & $ 9 % # 9 % $ + . : : y $ q 9 q % q 9 % % # q % q ",
"$ q & & $ 0 0 $ 0 $ & # q $ q $ 0 + . : : y @ q % q $ & & 9 @ 0 $ 9 @ q & $ q 9 $ q # q # 9 + . O : y $ q # % # q % q % # $ q @ ",
"& 0 # q $ $ 9 $ & & q # q $ % 9 & + . : < t q @ % q $ q @ 9 $ q $ q % $ q $ & q $ 9 % 9 $ 9 + . O : t $ $ # q # q % q % q $ q % ",
"@ @ @ @ @ @ @ @ @ @ @ @ @ @ @ @ + + . : : q + + + + + @ @ @ @ @ @ @ @ @ @ @ @ @ @ @ @ @ @ + +   : < q + + @ @ @ @ @ @ @ @ @ @ @ ",
". . . . . . . . . . . . . . . . . . . : < : O o o . . . . . . . . . . . . . .           .       O : : . . . . . .           . . ",
"O < O < O O O : : : : : < < O : : : : < < < < < : : : < : : : < : : O : : : - O O - O O - : - O - < : : O < : : : : - O - : : : ",
"< < < < < < < < < < < < < < < < < < < < < < < < < < < < < < < < < < < < < < < < < < < < < < < < < < < < < < < < < < < < < < < < "
};
