/* XPM */
static char *so_redbrick[] = {
/* columns rows colors chars-per-pixel */
"64 64 151 2 ",
"   c #202020",
".  c #2C2C2C",
"X  c gray19",
"o  c #343434",
"O  c gray22",
"+  c #400000",
"@  c #4C0000",
"#  c #580000",
"$  c #640000",
"%  c #700000",
"&  c #7C0000",
"*  c #5D2626",
"=  c #682626",
"-  c #7C2626",
";  c gray25",
":  c #444444",
">  c #484848",
",  c gray29",
"<  c #4C4C4C",
"1  c gray30",
"2  c #515151",
"3  c gray33",
"4  c gray36",
"5  c #764242",
"6  c #7F4242",
"7  c #606060",
"8  c #646464",
"9  c #6A6A6A",
"0  c gray45",
"q  c #767676",
"w  c gray48",
"e  c #7E7E7E",
"r  c gray50",
"t  c #880000",
"y  c #980000",
"u  c #A40000",
"i  c #B00000",
"p  c #BC0000",
"a  c #872626",
"s  c #922626",
"d  c #AB2626",
"f  c #C80000",
"g  c #D40000",
"h  c #E00000",
"j  c #EC0000",
"k  c #884242",
"l  c #9B4242",
"z  c #8B5858",
"x  c #935858",
"c  c #9B5858",
"v  c #B24242",
"b  c #B85858",
"n  c #836B6B",
"m  c #906B6B",
"M  c #9E6B6B",
"N  c #9C7D7D",
"B  c #A56B6B",
"V  c #AD6B6B",
"C  c #BF6B6B",
"Z  c #A27D7D",
"A  c #A87D7D",
"S  c #C64242",
"D  c #838383",
"F  c gray53",
"G  c #8B8B8B",
"H  c #8E8E8E",
"J  c #979797",
"K  c #A78D8D",
"L  c #B28D8D",
"P  c #BD8D8D",
"I  c #AE9C9C",
"U  c #B79C9C",
"Y  c #BB9C9C",
"T  c #A2A2A2",
"R  c #A5A5A5",
"E  c gray65",
"W  c gray66",
"Q  c #AAAAAA",
"!  c gray68",
"~  c #AFAFAF",
"^  c #B1B1B1",
"/  c #B2B2B2",
"(  c #B4B4B4",
")  c gray72",
"_  c #B9B9B9",
"`  c #BCBCBC",
"'  c #C58D8D",
"]  c #CB8D8D",
"[  c #D88D8D",
"{  c #C09C9C",
"}  c #C59C9C",
"|  c #CC9C9C",
" . c #D29C9C",
".. c #DD9C9C",
"X. c #E68D8D",
"o. c #C4AAAA",
"O. c #CDAAAA",
"+. c #D3AAAA",
"@. c #D8AAAA",
"#. c #C2B8B8",
"$. c #C4B8B8",
"%. c #CAB8B8",
"&. c #D9B8B8",
"*. c #DDB8B8",
"=. c #E6AAAA",
"-. c #E6B8B8",
";. c #C0C0C0",
":. c #CECECE",
">. c #DCC5C5",
",. c #D0D0D0",
"<. c #D7D1D1",
"1. c #D5D5D5",
"2. c gray84",
"3. c #DBD1D1",
"4. c #DDD1D1",
"5. c #DFD1D1",
"6. c #D8D8D8",
"7. c #E3C5C5",
"8. c #E1D1D1",
"9. c #E3D1D1",
"0. c #E6D1D1",
"q. c #E9D1D1",
"w. c #ECD1D1",
"e. c #EED1D1",
"r. c #E3DDDD",
"t. c #E4DDDD",
"y. c #E6DDDD",
"u. c #E9DDDD",
"i. c #EADDDD",
"p. c #EDDDDD",
"a. c #EFDDDD",
"s. c #F4D1D1",
"d. c #E1E1E1",
"f. c gray92",
"g. c #ECE9E9",
"h. c #EDE9E9",
"j. c #EEE9E9",
"k. c #EFE9E9",
"l. c #ECECEC",
"z. c #F1E9E9",
"x. c #F3E9E9",
"c. c #F4E9E9",
"v. c #F7E9E9",
"b. c #FAE9E9",
"n. c gray96",
"m. c #F6F4F4",
"M. c #F7F4F4",
"N. c #F6F6F6",
"B. c #F8F4F4",
"V. c #FAF4F4",
"C. c white",
/* pixels */
"O O O O O O O O O O O O O O O O O O O O O O O O O O O O O O O O O O O O O O O O O O O O O O O O O O O O O O O O O O O O O O O O ",
"3 O 3 > > > > > 3 > > > > > > 3 > O > > > > > > > 3 3 3 3 3 3 > > > > > > > > > 3 3 3 3 3 3 3 > > > > O O O > > 3 3 > > > > > O ",
"O j j g g g g g g g g g u > > 3 j j g g g g g g g g g g g g g g g g g g u > O 3 j j j j h h h h h h g g g g g f f f f p p p u > ",
"> j f i i g t u g t f u $ . > 3 j p t p t p t p & p y p y p & p & p f u % . > O g u f i f i i f % f & f i f t i u & f y f u & . ",
"> g u & u t u y % u t % $ . > 3 g p t t u t % u u % y u u % y u % u y % # . > 3 g u u & $ u t % t u & t u u t u & t u # u % $ . ",
"> g & u u % y u u % u # + . > 3 g t p u t u % u t u % u % t & u % y & % # . > > g % u $ t u $ u % u & u t u $ u y & u & u % @ . ",
"> f u & t y & u % t u % + . > 3 p p t u t t y u % t % u t % y & t % u % + . O > p % u & u t $ u % % u u % u t u u & u # u t @ . ",
"> p & u u % u y % y % # + . > > p f t u % u % u % u % y t % & u % y & % # . O > p y u $ t u & t % t & u t u $ u & t u & u % + . ",
"> p u % t # % & # % t % + . O 3 y y % % @ t % % t % @ % t % t % @ t % % + . O > p % % # % % @ t @ % # t @ % @ t $ @ % t % t + . ",
"> & $ $ $ + + + + + + + + . O > & $ $ # # # # # # # # # + + + + + + + + + . O > t $ $ $ $ $ $ $ $ $ $ # # # # # # # # # + + + . ",
"> > . . . . . . . .       . O 3 > . . . . .           . .         . . . . . > 3 O . . . . . . . . . . .           . . . . . . . ",
"3 O O O O > > > > O O O O O > O > > > > > > > O O O 3 > > > O O > > > > > > 3 O > 3 3 3 3 4 8 8 4 3 3 > > ; O ; 3 O 3 > > > 3 O ",
"j g g g p p p p p p p p p p p u > 3 > j j g g g g g g f f f f f f f p p p p p p p p p p p p p p p p p p u > ; 3 j j g g g g g g ",
"i t t i y & i & y t i $ i t u + O > 3 j % i f & p $ t p t t f y u t & t u t u t u & f $ f t y p f y f u + O > O j f & i t i t i ",
"t u t u & t t $ u t $ t u u % + . > > g i % u & u u t u $ u % $ t u & u & u $ u u t $ u t u % t u % u % + O > 3 f i & u t & u y ",
"% u u t y $ u & t t y $ u t % + . 1 ! s.M.C.C.p.>.P $ t t % u t $ u t & $ & l O.q.C.C.C.q.o.v % u u % % + . ; > f & u u u & u & ",
"u t t u t & & t & u y $ u $ % + R n.C.C.C.C.C.C.C.C.z.C $ % u $ t u & t a @.C.C.C.C.C.C.C.C.C.o.d % u % + . O > f i & u & u y & ",
"% u $ u % t & y $ u $ t u u % #.C.C.C.C.C.C.C.C.C.C.C.C.K t % $ u t & # u.C.C.C.C.C.C.C.C.C.C.C.a.% u % +   O > i & u u # u & t ",
"% i $ % @ & % y % y % # y % A C.C.C.C.C.C.C.C.C.C.C.C.C.M.k t # % y % +.C.C.C.C.C.C.C.C.C.C.C.C.C.o.t % +   ; 3 i u & % # % y % ",
"+ @ @ @ @ @ @ @ @ @ @ @ @ + g.C.C.C.C.C.C.C.C.C.C.C.C.C.C.%.$ $ $ # 5 C.C.C.C.C.C.C.C.C.C.C.C.C.C.C.= + +   > O u $ + $ + + $ + ",
". . .   . . .       . . . q C.C.C.C.C.C.( e w / C.C.C.C.C.n.O O o . R C.C.C.C.C.n.J w J n.C.C.C.C.C.R . . O > 3 > . . . . . . . ",
"3 3 > O O > 3 O 3 O > > O W C.C.C.C.C.! > > ; O Q C.C.C.C.C.F > 3 O ,.C.C.C.C.C.D ; > > H C.C.C.C.C.:.> 3 > 3 O 3 ; O ; 3 > > > ",
"3 j j g g g g g g g p p p -.C.C.C.C.C.S p p p p S C.C.C.C.C.E j j g b.C.C.C.C.b.g g g p p v.C.C.C.C.v.p p p p p p p p p p p u > ",
"3 j t i p & p & p & i t i 9.C.C.C.C.C.i t p i $ i C.C.C.C.C.^ j p % C.C.C.C.C.w.t i y i & 4.C.C.C.C.C.& t u y t u & t u # u + . ",
"O j i t u y u & % t u u t 0.C.C.C.C.C.% u t $ t u C.C.C.C.C.( g p y C.C.C.C.C.5.y t $ u $ 9.C.C.C.C.C.& u t u $ u y & u & % + . ",
"> p $ u u % t # u $ u % u >.C.C.C.C.C.x t u t $ & C M n w H r g p & C.C.C.C.C.5.y u & u & q.C.C.C.C.C.u y % y t u u & u # % + . ",
"> p i t u @ u # % t u t % { C.C.C.C.C.@.$ u t $ u % # + . 3 4 g % u C.C.C.C.C.0.% u $ t $ 9.C.C.C.C.C.& u t u $ u & t u & % + . ",
"3 p % $ u @ t & u $ u # u Z C.C.C.C.C.C.z u $ t & & i + . > 3 g f % C.C.C.C.C.9.% u $ u # 5.C.C.C.C.C.# u @ u u t $ @ % t % + . ",
"> f u $ % % % # % @ % % t $ B.C.C.C.C.C.y.- y % y % % + . O 3 f u % C.C.C.C.C.5.% % $ t % 9.C.C.C.C.C.@ % t @ u # u @ u % % + . ",
"> u y $ $ $ $ $ $ $ $ $ $ $ U C.C.C.C.C.C.r.* @ @ @ + + . O 3 u $ $ C.C.C.C.C.4.$ $ $ $ $ 4.C.C.C.C.C.# # # # # # # + # & # + . ",
"> > O . . . . . . . . . . . : f.C.C.C.C.C.C.d.9 . . . . . > > > . . C.C.C.C.C.1.          1.C.C.C.C.C.    . . . . . . . . . . . ",
"3 3 3 3 3 > > O > O O O > 3 8 G C.C.C.C.C.C.C.n.H O ; O O ; 3 > > > C.C.C.C.C.6.; O ; O ; 6.C.C.C.C.C.O ; > > > 3 O 3 > > > 3 O ",
"p p p p p p p p p p u > O 3 g g X.C.C.C.C.C.C.C.C.[ p p p p p p p p C.C.C.C.C.q.> 3 3 f j s.C.C.C.C.C.g g g p p p p p p p p p p ",
"u i u i y f i i f u + O > O g u $ ] C.C.C.C.C.C.C.C.L u t $ u u $ u C.C.C.C.C.<.O > 3 g u 8.C.C.C.C.C.u & t & u % u t u & u % u ",
"u & t u y u & u t % + . > 3 g $ u & P C.C.C.C.C.C.C.C.L t t u t $ u C.C.C.C.C.<.O 3 3 g u 3.C.C.C.C.C.u t u & t t y % y & y t % ",
"t & u y & u & y u % + . > O g $ u u & ' V.C.C.C.C.C.C.m.b @ t t u t C.C.C.C.C.<.O 3 8 g u 8.C.C.C.C.C.t u u & u % y t u y & u % ",
"u t & u y u y & t % + O > 3 g y $ u & u c m.C.C.C.C.C.C.c.$ u t $ t C.C.C.C.C.<.O 3 8 g & q.C.C.C.C.C.u & & u & u t y y t & % t ",
"u t & u & u & y u % + O > > g $ u & # y u k i.C.C.C.C.C.C.I $ y $ u C.C.C.C.C.<.O > 3 f u 8.C.C.C.C.C.t & u & u % y t u & t u % ",
"% % t y % % y % % % + O > > y $ u u # u & % d k.C.C.C.C.C.M.u t $ y C.C.C.C.C.<.. > 3 f u 3.C.C.C.C.C.u t u & u % y % y & u u % ",
"+ + @ @ @ @ @ @ @ + + . > > u $ $ $ $ $ $ $ $ z C.C.C.C.C.C.N # # # C.C.C.C.C.<.. > > u $ 4.C.C.C.C.C.$ $ $ $ $ $ $ $ # # # # + ",
". . . . . . . . . . . . > H F w q q 2   . . O O ;.C.C.C.C.C.T . . . C.C.C.C.C.1.O > > > . 1.C.C.C.C.C.O . .       . . . . . . . ",
"3 > 3 O > O O > > O O O O C.C.C.C.C.! > > > > 3 H C.C.C.C.C.,.> > > C.C.C.C.C.2.> > 3 > 3 2.C.C.C.C.C.3 < > > O 3 > 3 > 3 O 3 O ",
"O j g g g g g g g p p p p C.C.C.C.C...p p p p p p C.C.C.C.C.e.u O 3 C.C.C.C.C.s.g g g g g e.C.C.C.C.C.p p p p p p p p p p p u > ",
"3 g u t t u $ u u & y u & C.C.C.C.C. .& u t u $ u C.C.C.C.C.q.+ O > C.C.C.C.C.q.$ u # u % q.C.C.C.C.C.t % u t & u & y % t u + . ",
"> g u $ u t $ u t y & u $ z.C.C.C.C.*.# t y t $ v C.C.C.C.C.&.+ . > l.C.C.C.C.z.$ & # t # x.C.C.C.C.j.u % t % u t & y u $ t + . ",
"> g t $ u $ t % $ u $ u t 8.C.C.C.C.B.s # & u @ | C.C.C.C.C.Y + . O :.C.C.C.C.C.V u & # C C.C.C.C.C.7.% % u % u & u % t $ u + . ",
"O g u t u t $ u t & y u &  .C.C.C.C.C.h.} C N &.C.C.C.C.C.C.B + . O ! C.C.C.C.C.M.] m ] M.C.C.C.C.C.U u & t y t y & % u t u + . ",
"3 g u $ t u $ u $ u $ u $ v C.C.C.C.C.C.C.C.C.C.C.C.C.C.C.k.u +   O 0 C.C.C.C.C.C.C.C.C.C.C.C.C.C.C.6 t % u % & u & y t $ % + . ",
"O f u $ u $ t % t y & u t t O.C.C.C.C.C.C.C.C.C.C.C.C.C.C.A u +   O 3 =.C.C.C.C.C.C.C.C.C.C.C.C.C.O.$ u % u % u & y % u $ u + . ",
"3 u $ $ $ $ $ $ $ $ $ @ @ @ @ r.C.C.C.C.C.C.C.C.C.C.C.C.$.@ @ + . > 3 u y.C.C.C.C.C.C.C.C.C.C.C.t.# @ @ @ @ @ @ @ @ @ @ @ + + . ",
"O > . . . . . . . . . . O O O . ~ C.C.C.C.C.C.C.C.C.n.R .     . . > O > : / C.C.C.C.C.C.C.C.C.( , .   . . . .       . . . . . . ",
"3 O 3 O 3 > 3 > > > > 3 8 8 3 > 3 7 ` 6.N.C.C.f.2.W 3 > 3 > > O > > 3 O 3 > 9 ) 6.C.C.C.6._ 0 3 3 < > > > > O X     X O > > 3 > ",
"g g g g g p p p p p p p p p p p p u > 3 > j j g g g g g g g g p p p p p p p p p p p p p p p u > O 3 j g g g g g p p p p p p p p ",
"& u # u u $ y $ u & f & u $ u & u + . > > g u u u u $ u @ u & u $ u $ u y u $ u $ u # u % $ + O > 3 g u $ t u # u % u % u $ u % ",
"u & & u & u $ y & $ u # & $ t $ t + . > > g & u % u $ % @ & y & u t $ t y $ & t % t # u $ u + o > 3 g $ u # u % u % t u % u t @ ",
"u & # & u $ y $ & u & # u t $ y & + . > ; g & & % u $ & & u # u @ u u $ u $ u $ t # t t $ % + . > 3 g $ u % % u u t % t % $ % t ",
"& y # y $ $ u $ u & u # & % $ u $ + . > ; g u @ % u $ u @ u & y $ u $ t & $ u $ u t # % y $ + . > 3 g u $ # u t % % u % u $ % u ",
"$ u & u $ u $ t u $ u & # t u & t + . > ; g @ u u $ u & % t # & @ u $ u $ & & $ t % # t % $ + . > > g $ u t u % u t % % # u % u ",
"$ u & & $ y y $ y $ & # u $ u $ y + . > > g @ u % u $ & & t @ y $ t @ u & $ u t $ u # u # t + . O > g $ u # % # u % u % # $ u @ ",
"& y # u $ $ t $ & & u # u $ % t & + . > 3 f u @ % u $ u @ t $ u $ u % $ u $ & u $ t % t $ t + . O > f $ $ # u # u % u % u $ u % ",
"@ @ @ @ @ @ @ @ @ @ @ @ @ @ @ @ + + . > > u + + + + + @ @ @ @ @ @ @ @ @ @ @ @ @ @ @ @ @ @ + +   > 3 u + + @ @ @ @ @ @ @ @ @ @ @ ",
". . . . . . . . . . . . . . . . . . . > 3 > O o o . . . . . . . . . . . . . .           .       O > > . . . . . .           . . ",
"O 3 O 3 O O O > > > > > 3 3 O > > > > 3 3 3 3 3 > > > 3 > > > 3 > > O > > > ; O O ; O O ; > ; O ; 3 > > O 3 > > > > ; O ; > > > ",
"3 3 3 3 3 3 3 3 3 3 3 3 3 3 3 3 3 3 3 3 3 3 3 3 3 3 3 3 3 3 3 3 3 3 3 3 3 3 3 3 3 3 3 3 3 3 3 3 3 3 3 3 3 3 3 3 3 3 3 3 3 3 3 3 "
};
