/* XPM */
static char *we_redbrick[] = {
/* columns rows colors chars-per-pixel */
"64 64 127 2 ",
"   c #202020",
".  c #2C2C2C",
"X  c gray19",
"o  c #343434",
"O  c gray22",
"+  c #400000",
"@  c #4C0000",
"#  c #580000",
"$  c #640000",
"%  c #700000",
"&  c #7C0000",
"*  c #542626",
"=  c #5D2626",
"-  c gray25",
";  c #484848",
":  c #4C4C4C",
">  c gray33",
",  c #5A5A5A",
"<  c gray36",
"1  c #7F4242",
"2  c #7C5858",
"3  c #646464",
"4  c #6A6A6A",
"5  c gray44",
"6  c #727272",
"7  c #767676",
"8  c gray48",
"9  c #880000",
"0  c #980000",
"q  c #A40000",
"w  c #B00000",
"e  c #BC0000",
"r  c #922626",
"t  c #C80000",
"y  c #D40000",
"u  c #E00000",
"i  c #EC0000",
"p  c #8B5858",
"a  c #B24242",
"s  c #B85858",
"d  c #836B6B",
"f  c #896B6B",
"g  c #906B6B",
"h  c #976B6B",
"j  c #9E6B6B",
"k  c #A56B6B",
"l  c #AD6B6B",
"z  c #B76B6B",
"x  c #BF6B6B",
"c  c #DA4242",
"v  c #DD5858",
"b  c #C76B6B",
"n  c #CF6B6B",
"m  c #C57D7D",
"M  c #808080",
"N  c #838383",
"B  c gray53",
"V  c #8E8E8E",
"C  c #9E8D8D",
"Z  c #929292",
"A  c gray58",
"S  c #9A9A9A",
"D  c #9B9B9B",
"F  c #AC8D8D",
"G  c #B28D8D",
"H  c #BD8D8D",
"J  c #AA9C9C",
"K  c #AE9C9C",
"L  c #B29C9C",
"P  c #B79C9C",
"I  c #BB9C9C",
"U  c #A2A2A2",
"Y  c #A5A5A5",
"T  c gray66",
"R  c #AFAFAF",
"E  c #BDAAAA",
"W  c #B1B1B1",
"Q  c #B2B2B2",
"!  c #B4B4B4",
"~  c gray72",
"^  c #C09C9C",
"/  c #C59C9C",
"(  c #CC9C9C",
")  c #D29C9C",
"_  c #DD9C9C",
"`  c #E39C9C",
"'  c #E99C9C",
"]  c #C1AAAA",
"[  c #C4AAAA",
"{  c #CDAAAA",
"}  c #D3AAAA",
"|  c #D8AAAA",
" . c #CDB8B8",
".. c #DDB8B8",
"X. c #C0C0C0",
"o. c #CBCBCB",
"O. c gray83",
"+. c #D5D5D5",
"@. c gray84",
"#. c #D7D7D7",
"$. c #DBD1D1",
"%. c #DDD1D1",
"&. c #DFD1D1",
"*. c #D8D8D8",
"=. c #DADADA",
"-. c #E0C5C5",
";. c #E3C5C5",
":. c #E1D1D1",
">. c #E3D1D1",
",. c #E6D1D1",
"<. c #E9D1D1",
"1. c #ECD1D1",
"2. c #EED1D1",
"3. c #E3DDDD",
"4. c #EDDDDD",
"5. c #EFDDDD",
"6. c #F4D1D1",
"7. c #FAD1D1",
"8. c #F3DDDD",
"9. c #E4E4E4",
"0. c #EAEAEA",
"q. c #EEE9E9",
"w. c #F7F4F4",
"e. c #F8F4F4",
"r. c #FAF4F4",
"t. c #FEF4F4",
"y. c white",
/* pixels */
"O O O O O O O O O O O O O O O O O O O O O O O O O O O O O O O O O O O O O O O O O O O O O O O O O O O O O O O O O O O O O O O O ",
"> O > ; ; ; ; ; > ; ; ; ; ; ; > ; O ; ; ; ; ; ; ; > > > > > > ; ; ; ; ; ; ; ; ; > > > > > > > ; ; ; ; O O O ; ; > > ; ; ; ; ; O ",
"O i i y y y y y y y y y q ; ; > i i y y y y y y y y y y y y y y y y y y q ; O > i i i i u u u u u u y y y y y t t t t e e e q ; ",
"; i t w w y 9 q y 9 t q $ . ; > i e 9 e 9 e 9 e & e 0 e 0 e & e & e t q % . ; O y q t w t w w t % t & t w t 9 w q & t 0 t q & . ",
"; y q & q 9 q 0 % q 9 % $ . ; > y e 9 9 q 9 % q q % 0 q q % 0 q % q 0 % # . ; > y q q & $ q 9 % 9 q & 9 q q 9 q & 9 q # q % $ . ",
"; y & q q % 0 q q % q # + . ; > y 9 e q 9 q % q 9 q % q % 9 & q % 0 & % # . ; ; y % q $ 9 q $ q % q & q 9 q $ q 0 & q & q % @ . ",
"; t q & 9 0 & q % 9 q % + . ; > e e 9 q 9 9 0 q % 9 % q 9 % 0 & 9 % q % + . O ; e % q & q 9 $ q % % q q % q 9 q q & q # q 9 @ . ",
"; e & q q % q 0 % 0 % # + . ; ; e t 9 q % q % q % q % 0 9 % & q % 0 & % # . O ; e 0 q $ 9 q & 9 % 9 & q 9 q $ q & 9 q & q % + . ",
"; e q % 9 # % & # % 9 % + . O > 0 0 % % @ 9 % % 9 % @ % 9 % 9 % @ 9 % % + . O ; e % % # % % @ 9 @ % # 9 @ % @ 9 $ @ % 9 % 9 + . ",
"; & $ $ $ + + + + + + + + . O ; & $ $ # # # # # # # # # + + + + + + + + + . O ; 9 $ $ $ $ $ $ $ $ $ $ # # # # # # # # # + + + . ",
"; ; . . . . . . . .       . O > ; . . . . .           . .         . . . . . ; > O . . . . . . . . . . .           . . . . . . . ",
"> O O O O ; ; ; ; O O O O O ; O ; ; ; ; ; ; ; O O O > ; ; ; O O ; ; ; ; ; ; > O ; > > > > < 3 3 < > > ; ; - O - > O > ; ; ; > O ",
"i y y y e e e e e e e e e e e q ; > ; i i y y y y y y t t t t t t t e e e e e e e e e e e e e e e e e e q ; - > i i y y y y y y ",
"w 9 9 w 0 & w & 0 9 w $ w 9 q + O ; > i % w t & e $ 9 e 9 9 t 0 q 9 & 9 q 9 q 9 q & t $ t 9 0 e t 0 t q + O ; O i t & w 9 w 9 w ",
"9 q 9 q & 9 9 $ q 9 $ 9 q q % + . ; ; y w % q & q q 9 q $ q % $ 9 q & q & q $ q q 9 $ q 9 q % 9 q % q % + O ; > t w & q 9 & q 0 ",
"% q q 9 0 $ q & 9 y.y.y.y.y.&.+ . O ; y I y.y.y.y.y.1 9 9 % q r y.y.y.y.y.& 9 9 <.y.y.y.y.y.y.y.y.y.y.y.y.y.y.y.t & q q q & q & ",
"q 9 9 q 9 & & 9 & <.y.y.y.y.&.+ . O ; y  .y.y.y.y.y.l q $ % q h y.y.y.y.:.q $ q >.y.y.y.y.y.y.y.y.y.y.y.y.y.y.y.t w & q & q 0 & ",
"% q $ q % 9 & 0 $ <.y.y.y.y.w.+ . ; > y 1.y.y.y.y.y.h 9 # 9 % h y.y.y.y.:.q $ 9 $.y.y.y.y.y.y.y.y.y.y.y.y.y.y.y.w & q q # q & 9 ",
"% w $ % @ & % 0 % } y.y.y.y.y.+ . ; > w <.y.y.y.y.y.I 9 $ % 9 L y.y.y.y.] 9 % 9 >.y.y.y.y.y.y.y.y.y.y.y.y.y.y.y.w q & % # % 0 % ",
"+ @ @ @ @ @ @ @ @ K y.y.y.y.y.* O ; > q y.y.y.y.y.y.P $ $ $ $ P y.y.y.y.L # # # $.y.y.y.y.y.y.y.y.y.y.y.y.y.y.y.q $ + $ + + $ + ",
". . .   . . .     A y.y.y.y.y.8 O ; O ; y.y.y.y.y.y.Q . o o O ! y.y.y.y.A       O.y.y.y.y.y.7 7 8 8 8 8 8 M B V ; . . . . . . . ",
"> > ; O O ; > O > M y.y.y.y.y.M ; ; > , y.y.y.y.y.y.#.O - ; ; *.y.y.y.y.N O O O #.y.y.y.y.y.O O - ; ; ; > ; > O > - O - > ; ; ; ",
"> i i y y y y y y v y.y.y.y.y._ e e e n y.y.y.y.y.y.2.q ; > > 7.y.y.y.y.v y y y 6.y.y.y.y.y.e e e e e e e e e e e e e e e e q ; ",
"> i 9 w e & e & e & y.y.y.y.y.` 9 w 9 b y.y.y.y.y.y.w.+ O ; > t.y.y.y.y.w 9 q w >.y.y.y.y.y.q 9 % 9 q & 9 q 0 9 q & 9 q # q + . ",
"O i w 9 q 0 q & % 9 y.y.y.y.y...9 $ q G y.y.y.y.y.y.y.+ . ; < y.y.y.y.y.q $ 9 % ,.y.y.y.y.y.q $ q % q & q 9 q $ q 0 & q & % + . ",
"; e $ q q % 9 # q $ <.y.y.y.y.<.$ 9 q I y.y.y.y.y.y.y.+ . > 6 y.y.y.y.:.q $ q % ,.y.y.y.y.y.9 $ q % % q 0 % 0 9 q q & q # % + . ",
"; e w 9 q @ q # % 9 <.y.y.y.y.:.9 $ & ) y.y.y.y.y.y.y.d . > Z y.y.y.y.,.9 $ 9 0 &.y.y.y.y.y.q & 9 % 9 & q 9 q $ q & 9 q & % + . ",
"> e % $ q @ 9 & q $ | y.y.y.y.y.$ 9 q >.y.y.y.y.y.y.y.d . ; V y.y.y.y.[ q 9 q 9 &.y.y.y.y.y.% @ q @ q # q @ q q 9 $ @ % 9 % + . ",
"; t q $ % % % # % @ I y.y.y.y.y.% 9 % &.y.y.y.y.y.y.y.C . O W y.y.y.y.I 9 # % % &.y.y.y.y.y.@ q # % q @ % 9 @ q # q @ q % % + . ",
"; q 0 $ $ $ $ $ $ $ F y.y.y.y.y.p @ @ 3.y.y.y.y.y.y.y.J . O W y.y.y.y.F $ $ $ $ %.y.y.y.y.y.# # # # # # # # # # # # + # & # + . ",
"; ; O . . . . . . . 8 y.y.y.y.y.8 . . y.y.y.y.y.y.y.y.Y . ; ~ y.y.y.y.8 . . . . O.y.y.y.y.y.M M M 8 7 7 7 8 . . . . . . . . . . ",
"> > > > > ; ; O ; O 5 y.y.y.y.y.S > > y.y.y.y.y.y.y.y.o.O - =.y.y.y.y.5 > ; > ; #.y.y.y.y.y.y.y.y.y.y.y.y.y.; ; > O > ; ; ; > O ",
"e e e e e e e e e e q y.y.y.y.y.' y c y.y.y.y.8.y.y.y.2.e e 2.y.y.y.y.e e e e q *.y.y.y.y.y.y.y.y.y.y.y.y.y.e e e e e e e e e e ",
"q w q w 0 t w w t q + y.y.y.y.y.P q j y.y.y.y.>.y.y.y.5.9 $ r.y.y.y.y.% q & q + @.y.y.y.y.y.y.y.y.y.y.y.y.y.& q % q 9 q & q % q ",
"q & 9 q 0 q & q 9 % + +.y.y.y.y.<.& l y.y.y.4.I y.y.y.y.9 9 y.y.y.y.&.9 q $ q + @.y.y.y.y.y.y.y.y.y.y.y.y.y.& 9 9 0 % 0 & 0 9 % ",
"9 & q 0 & q & 0 q % + +.y.y.y.y.<.q ^ y.y.y.<.I y.y.y.y.q = y.y.y.y.&.0 q & q + @.y.y.y.y.y.y.y.y.y.y.y.y.y.& q % 0 9 q 0 & q % ",
"q 9 & q 0 q 0 & 9 % + ! y.y.y.y.q.q ^ y.y.y.-.H y.y.y.y.s h y.y.y.y.} % 9 q & + @.y.y.y.y.y.q % q $ q q & & q & q 9 0 0 9 & % 9 ",
"q 9 & q & q & 0 q % + T y.y.y.y.y.& E y.y.y./ l y.y.y.y.l f y.y.y.y.( % q & q + @.y.y.y.y.y.q q % q 9 9 & q & q % 0 9 q & 9 q % ",
"% % 9 0 % % 0 % % % + D y.y.y.y.y.q $.y.y.y.) j y.y.y.y.l P y.y.y.y.G 0 q $ & + +.y.y.y.y.y.q % q q 9 q 9 q & q % 0 % 0 & q q % ",
"+ + @ @ @ @ @ @ @ + + 8 y.y.y.y.y.h %.y.y.y.h $ y.y.y.y.L L y.y.y.y.g # # # + + +.y.y.y.y.y.$ $ $ $ $ $ $ $ $ $ $ $ $ # # # # + ",
". . . . . . . . . . . 4 y.y.y.y.y.7 0.y.y.y.M O y.y.y.y.U R y.y.y.y.4 . . . . . @.y.y.y.y.y.. . O O ; O . .       . . . . . . . ",
"> ; > O ; O O ; ; O O O y.y.y.y.y.T y.y.y.y.4 > 9.y.y.y.X.@.y.y.y.y.> O ; O ; O *.y.y.y.y.y.> ; > < 3 > : ; ; O > ; > ; > O > O ",
"O i y y y y y y y e e e y.y.y.y.y._ y.y.y.y.e e 2.y.y.y.2.2.y.y.y.y.O i i y y y 6.y.y.y.y.y.e e e e e e e e e e e e e e e e q ; ",
"> y q 9 9 q $ q q & 0 q :.y.y.y.y.%.y.y.y.e.q $ ;.y.y.y.:.w.y.y.y.*.> i q q $ q %.y.y.y.y.y.# q 9 # 0 9 % q 9 & q & 0 % 9 q + . ",
"; y q $ q 9 $ q 9 0 & q %.y.y.y.y.y.y.y.y.,.9 $ ) y.y.y.y.y.y.y.y.*.; y 9 q $ 9 %.y.y.y.y.y.& q # q $ q % 9 % q 9 & 0 q $ 9 + . ",
"; y 9 $ q $ 9 % $ q $ q { y.y.y.y.y.y.y.y.:.q @ ( y.y.y.y.y.y.y.y.! ; y 9 q $ $ >.y.y.y.y.y.# 0 q # q % % q % q & q % 9 $ q + . ",
"O y q 9 q 9 $ q 9 & 0 q ^ y.y.y.y.y.y.y.y.| # 0 m y.y.y.y.y.y.y.y.T ; y q $ q 9 %.y.y.y.y.y.k k g l h x k l z l 0 & % q 9 q + . ",
"> y q $ 9 q $ q $ q $ q F y.y.y.y.y.y.y.y.^ q & l y.y.y.y.y.y.y.y.D > y q $ $ q %.y.y.y.y.y.y.y.y.y.y.y.y.y.y.y.q & 0 9 $ % + . ",
"O t q $ q $ 9 % 9 0 & q l y.y.y.y.y.y.y.y.P q @ a y.y.y.y.y.y.y.y.M > t % q $ 9 %.y.y.y.y.y.y.y.y.y.y.y.y.y.y.y.& 0 % q $ q + . ",
"> q $ $ $ $ $ $ $ $ $ @ 2 y.y.y.y.y.y.y.y.f @ @ @ y.y.y.y.y.y.y.y.B > q $ $ $ $ %.y.y.y.y.y.y.y.y.y.y.y.y.y.y.y.@ @ @ @ @ + + . ",
"O ; . . . . . . . . . . O y.y.y.y.y.y.y.y.8 .     y.y.y.y.y.y.y.y.; O ; . . . . +.y.y.y.y.y.y.y.y.y.y.y.y.y.y.y.    . . . . . . ",
"> O > O > ; > ; ; ; ; > 3 y.y.y.y.y.y.y.y.; - O O @.y.y.y.y.y.y.y.; > O > ; ; ; *.y.y.y.y.y.y.y.y.y.y.y.y.y.y.y.    X O ; ; > ; ",
"y y y y y e e e e e e e e e e e e q ; > ; i i y y y y y y y y e e e e e e e e e e e e e e e q ; O > i y y y y y e e e e e e e e ",
"& q # q q $ 0 $ q & t & q $ q & q + . ; ; y q q q q $ q @ q & q $ q $ q 0 q $ q $ q # q % $ + O ; > y q $ 9 q # q % q % q $ q % ",
"q & & q & q $ 0 & $ q # & $ 9 $ 9 + . ; ; y & q % q $ % @ & 0 & q 9 $ 9 0 $ & 9 % 9 # q $ q + o ; > y $ q # q % q % 9 q % q 9 @ ",
"q & # & q $ 0 $ & q & # q 9 $ 0 & + . ; - y & & % q $ & & q # q @ q q $ q $ q $ 9 # 9 9 $ % + . ; > y $ q % % q q 9 % 9 % $ % 9 ",
"& 0 # 0 $ $ q $ q & q # & % $ q $ + . ; - y q @ % q $ q @ q & 0 $ q $ 9 & $ q $ q 9 # % 0 $ + . ; > y q $ # q 9 % % q % q $ % q ",
"$ q & q $ q $ 9 q $ q & # 9 q & 9 + . ; - y @ q q $ q & % 9 # & @ q $ q $ & & $ 9 % # 9 % $ + . ; ; y $ q 9 q % q 9 % % # q % q ",
"$ q & & $ 0 0 $ 0 $ & # q $ q $ 0 + . ; ; y @ q % q $ & & 9 @ 0 $ 9 @ q & $ q 9 $ q # q # 9 + . O ; y $ q # % # q % q % # $ q @ ",
"& 0 # q $ $ 9 $ & & q # q $ % 9 & + . ; > t q @ % q $ q @ 9 $ q $ q % $ q $ & q $ 9 % 9 $ 9 + . O ; t $ $ # q # q % q % q $ q % ",
"@ @ @ @ @ @ @ @ @ @ @ @ @ @ @ @ + + . ; ; q + + + + + @ @ @ @ @ @ @ @ @ @ @ @ @ @ @ @ @ @ + +   ; > q + + @ @ @ @ @ @ @ @ @ @ @ ",
". . . . . . . . . . . . . . . . . . . ; > ; O o o . . . . . . . . . . . . . .           .       O ; ; . . . . . .           . . ",
"O > O > O O O ; ; ; ; ; > > O ; ; ; ; > > > > > ; ; ; > ; ; ; > ; ; O ; ; ; - O O - O O - ; - O - > ; ; O > ; ; ; ; - O - ; ; ; ",
"> > > > > > > > > > > > > > > > > > > > > > > > > > > > > > > > > > > > > > > > > > > > > > > > > > > > > > > > > > > > > > > > "
};
